<?xml version="1.0" encoding="UTF-8"?>
<svg width="40px" height="30px" viewBox="0 0 40 30" version="1.1" xmlns="http://www.w3.org/2000/svg" xmlns:xlink="http://www.w3.org/1999/xlink">
    <!-- Generator: Sketch 48.2 (47327) - http://www.bohemiancoding.com/sketch -->
    <title>amex</title>
    <desc>Created with Sketch.</desc>
    <defs></defs>
    <g id="Checkout" stroke="none" stroke-width="1" fill="none" fill-rule="evenodd" transform="translate(-943.000000, -1328.000000)">
        <g id="Group-6-Copy-3" transform="translate(279.000000, 1296.000000)" fill-rule="nonzero">
            <g id="amex" transform="translate(664.104241, 32.691406)">
                <path d="M2.48492578,0.00340680804 L37.2744318,0.00340680804 C38.646149,0.00340680804 39.7593576,1.1166154 39.7593576,2.48955904 L39.7593576,26.0966946 C39.7593576,27.4684118 38.646149,28.5816204 37.2744318,28.5816204 L2.48492578,28.5816204 C1.11198214,28.5817567 0,27.4684118 0,26.0968309 L0,2.48955904 C0,1.1166154 1.11320859,0.00340680804 2.48492578,0.00340680804 Z" id="Shape" fill="#26A6D1"></path>
                <path d="M6.41120391,9.94324621 L2.48492578,18.6319694 L7.18523069,18.6319694 L7.76793114,17.246625 L9.09985681,17.246625 L9.68255725,18.6319694 L14.8562722,18.6319694 L14.8562722,17.5746325 L15.3172815,18.6319694 L17.9935336,18.6319694 L18.4545429,17.5522838 L18.4545429,18.6319694 L29.2144691,18.6319694 L30.5228196,17.2826009 L31.7479078,18.6319694 L37.2744318,18.6431437 L33.3357529,14.3118643 L37.2744318,9.94324621 L31.8336231,9.94324621 L30.560022,11.2676769 L29.3734989,9.94324621 L17.6681153,9.94324621 L16.6629706,12.1858798 L15.6342509,9.94324621 L10.9437576,9.94324621 L10.9437576,10.9646073 L10.4219709,9.94324621 C10.4219709,9.94324621 6.41120391,9.94324621 6.41120391,9.94324621 Z M7.32068538,11.1770558 L9.61183192,11.1770558 L12.2161323,17.0689259 L12.2161323,11.1770558 L14.7259959,11.1770558 L16.7375116,15.4014978 L18.5913603,11.1770558 L21.0886868,11.1770558 L21.0886868,17.4117871 L19.5691142,17.4117871 L19.5567134,12.5262881 L17.3413343,17.4117871 L15.9820179,17.4117871 L13.7542379,12.5262881 L13.7542379,17.4117871 L10.6281509,17.4117871 L10.0355026,16.0140419 L6.8336481,16.0140419 L6.24222623,17.4105606 L4.56730312,17.4105606 C4.56730312,17.4105606 7.32068538,11.1770558 7.32068538,11.1770558 Z M22.4789371,11.1770558 L28.6577967,11.1770558 L30.5476212,13.2184152 L32.4983595,11.1770558 L34.388184,11.1770558 L31.51679,14.3106378 L34.388184,17.4081077 L32.4126442,17.4081077 L30.5228196,15.3430369 L28.5621335,17.4081077 L22.4789371,17.4081077 L22.4789371,11.1770558 Z M8.4352567,12.2319398 L7.38037266,14.7219077 L9.48891429,14.7219077 L8.4352567,12.2319398 Z M24.0047782,12.4679635 L24.0047782,13.6061099 L27.3756104,13.6061099 L27.3756104,14.874669 L24.0047782,14.874669 L24.0047782,16.1172 L27.7856538,16.1172 L29.5424766,14.2870627 L27.8601948,12.4668733 L24.0047782,12.4668733 L24.0047782,12.4679635 Z" id="Shape" fill="#FFFFFF"></path>
            </g>
        </g>
    </g>
</svg>