<?xml version="1.0" encoding="UTF-8"?>
<svg width="24px" height="24px" viewBox="0 0 24 24" version="1.1" xmlns="http://www.w3.org/2000/svg" xmlns:xlink="http://www.w3.org/1999/xlink">
    <!-- Generator: Sketch 48.2 (47327) - http://www.bohemiancoding.com/sketch -->
    <title>artist-facebook</title>
    <desc>Created with Sketch.</desc>
    <defs></defs>
    <g id="Event-Page" stroke="none" stroke-width="1" fill="none" fill-rule="evenodd" transform="translate(-761.000000, -1673.000000)">
        <g id="Group-14" transform="translate(334.000000, 1415.000000)" fill="#DCBDBA" fill-rule="nonzero">
            <g id="Group-13" transform="translate(0.000000, 46.000000)">
                <g id="Group-12" transform="translate(371.000000, 1.000000)">
                    <g id="Group-11" transform="translate(50.000000, 44.000000)">
                        <g id="Group-10" transform="translate(6.000000, 166.000000)">
                            <g id="artist-facebook" transform="translate(0.000000, 1.000000)">
                                <path d="M22,0 L2,0 C0.895,0 0,0.895 0,2 L0,22 C0,23.105 0.895,24 2,24 L13,24 L13,15 L10,15 L10,11 L13,11 L13,8.413 C13,5.313 14.893,3.625 17.659,3.625 C18.984,3.625 20.122,3.724 20.454,3.768 L20.454,7.008 L18.536,7.009 C17.032,7.009 16.741,7.724 16.741,8.772 L16.741,11 L21.181,11 L20.181,15 L16.741,15 L16.741,24 L22,24 C23.105,24 24,23.105 24,22 L24,2 C24,0.895 23.105,0 22,0 Z" id="Shape"></path>
                            </g>
                        </g>
                    </g>
                </g>
            </g>
        </g>
    </g>
</svg>