<?xml version="1.0" encoding="UTF-8"?>
<svg width="63px" height="53px" viewBox="0 0 63 53" version="1.1" xmlns="http://www.w3.org/2000/svg" xmlns:xlink="http://www.w3.org/1999/xlink">
    <!-- Generator: Sketch 48.2 (47327) - http://www.bohemiancoding.com/sketch -->
    <title>fist</title>
    <desc>Created with Sketch.</desc>
    <defs></defs>
    <g id="Careers" stroke="none" stroke-width="1" fill="none" fill-rule="evenodd" transform="translate(-1089.000000, -1531.000000)" stroke-linecap="square">
        <g id="fist" transform="translate(1090.500000, 1532.339844)" stroke="#322B5E" stroke-width="2">
            <path d="M60,8 C60,3.6 56.4,0 52,0 L8,0 C3.6,0 0,3.6 0,8 L0,30 C0,34.4 3.6,38 8,38 L52,38 C56.4,38 60,34.4 60,30 L60,8 Z" id="Shape"></path>
            <path d="M60,28 L60,46 C60,48.2 58.2,50 56,50 L38,50 C33.6,50 30,46.4 30,42 L30,38" id="Shape"></path>
            <path d="M15,38 L15,20" id="Shape"></path>
            <path d="M30,38 L30,20" id="Shape"></path>
            <path d="M45,38 L45,20" id="Shape"></path>
        </g>
    </g>
</svg>