<?xml version="1.0" encoding="UTF-8"?>
<svg width="76px" height="106px" viewBox="0 0 76 106" version="1.1" xmlns="http://www.w3.org/2000/svg" xmlns:xlink="http://www.w3.org/1999/xlink">
    <!-- Generator: Sketch 48.2 (47327) - http://www.bohemiancoding.com/sketch -->
    <title>flare</title>
    <desc>Created with Sketch.</desc>
    <defs></defs>
    <g id="Home" stroke="none" stroke-width="1" fill="none" fill-rule="evenodd" transform="translate(-270.000000, -1443.000000)">
        <g id="Group-7" transform="translate(176.000000, 1444.500000)" stroke="#322B5E" stroke-width="2">
            <g id="flare" transform="translate(95.000000, 0.000000)">
                <g id="brush" transform="translate(0.230469, 47.438477)">
                    <path d="M12.754,32 C12.935,31.775 13.135,31.552 13.344,31.343 L49.172,1.172 C50.734,-0.39 53.267,-0.39 54.829,1.172 C56.391,2.734 56.391,5.267 54.829,6.829 L24.657,42.657 C24.462,42.852 24.21,43.065 24,43.236" id="Shape"></path>
                    <path d="M20.709,35.291 C18.587,33.169 15.766,32 12.764,32 C9.762,32 6.941,33.169 4.819,35.291 C0.601,39.509 0,56 0,56 C0,56 16.491,55.399 20.709,51.18 C22.831,49.059 24,46.237 24,43.236 C24,40.234 22.831,37.413 20.709,35.291 Z" id="Shape" stroke-linecap="square"></path>
                </g>
                <g id="brush-copy" transform="translate(45.165039, 75.438477) rotate(-90.000000) translate(-45.165039, -75.438477) translate(17.165039, 47.438477)">
                    <path d="M12.754,32 C12.935,31.775 13.135,31.552 13.344,31.343 L49.172,1.172 C50.734,-0.39 53.267,-0.39 54.829,1.172 C56.391,2.734 56.391,5.267 54.829,6.829 L24.657,42.657 C24.462,42.852 24.21,43.065 24,43.236" id="Shape" fill="#FBFBFB"></path>
                    <path d="M20.709,35.291 C18.587,33.169 15.766,32 12.764,32 C9.762,32 6.941,33.169 4.819,35.291 C0.601,39.509 0,56 0,56 C0,56 16.491,55.399 20.709,51.18 C22.831,49.059 24,46.237 24,43.236 C24,40.234 22.831,37.413 20.709,35.291 Z" id="Shape" stroke-linecap="square"></path>
                </g>
                <g id="flame" transform="translate(19.628906, 0.438477)" stroke-linecap="square">
                    <path d="M0,28.8025568 C0,17.6815696 17.6015625,0 17.6015625,0 C17.6015625,0 35.203125,17.6815696 35.203125,28.8025568 C35.203125,40.0035511 26.2423295,46.4041193 17.6015625,46.4041193 C8.96079545,46.4041193 0,40.0035511 0,28.8025568 Z" id="Shape"></path>
                    <path d="M17.6015625,35.203125 C17.5215554,35.203125 11.2009943,35.1231179 11.2009943,28.8025568 C11.2810014,26.7223722 13.9212358,22.0819602 17.6015625,17.1215199 C21.2818892,22.0819602 23.9221236,26.7223722 24.0021307,28.8025568 C24.0021307,35.1231179 17.6815696,35.203125 17.6015625,35.203125 Z" id="Shape"></path>
                </g>
            </g>
        </g>
    </g>
</svg>