<?xml version="1.0" encoding="UTF-8"?>
<svg width="65px" height="88px" viewBox="0 0 65 88" version="1.1" xmlns="http://www.w3.org/2000/svg" xmlns:xlink="http://www.w3.org/1999/xlink">
    <!-- Generator: Sketch 48.2 (47327) - http://www.bohemiancoding.com/sketch -->
    <title>learn</title>
    <desc>Created with Sketch.</desc>
    <defs></defs>
    <g id="Home" stroke="none" stroke-width="1" fill="none" fill-rule="evenodd" transform="translate(-1088.000000, -1445.000000)">
        <g id="Group-14" transform="translate(984.000000, 1446.000000)" stroke="#322B5E" stroke-width="2">
            <g id="learn" transform="translate(105.500000, 0.405228)">
                <path d="M16.9945313,70.8105469 L45.31875,70.8105469" id="Shape"></path>
                <path d="M14.1621094,19.8269531 L16.9945313,19.8269531 C24.8160377,19.8269531 31.1566406,26.1675561 31.1566406,33.9890625 L31.1566406,39.6539062 L28.3242188,39.6539062 C20.5027123,39.6539062 14.1621094,33.3133033 14.1621094,25.4917969 L14.1621094,19.8269531 Z" id="Shape" stroke-linecap="square"></path>
                <path d="M31.1566406,70.8105469 L31.1566406,14.1621094" id="Shape" stroke-linecap="square"></path>
                <path d="M48.1511719,31.1566406 L45.31875,31.1566406 C37.4972436,31.1566406 31.1566406,37.4972436 31.1566406,45.31875 L31.1566406,50.9835937 L33.9890625,50.9835937 C41.8105689,50.9835937 48.1511719,44.6429908 48.1511719,36.8214844 L48.1511719,31.1566406 Z" id="Shape" stroke-linecap="square"></path>
                <path d="M62.3132813,31.1566406 C62.3132813,12.7673257 46.3818146,-1.90097994 27.5680329,0.200917846 C13.8431787,1.73427775 2.4898971,12.5507871 0.383467436,26.199435 C-1.8005281,40.3507245 5.55960512,53.0321004 16.9945313,58.8847762 L16.9945313,70.810561 C16.9945313,78.6320675 23.33512,84.9726562 31.1566265,84.9726562 L31.1566548,84.9726562 C38.9781612,84.9726562 45.31875,78.6320675 45.31875,70.810561 L45.31875,58.8847762 C55.3993961,53.7252507 62.3132813,43.2587437 62.3132813,31.1566406 Z" id="Shape" stroke-linecap="square"></path>
            </g>
        </g>
    </g>
</svg>