<?xml version="1.0" encoding="UTF-8"?>
<svg width="126px" height="35px" viewBox="0 0 126 35" version="1.1" xmlns="http://www.w3.org/2000/svg" xmlns:xlink="http://www.w3.org/1999/xlink">
    <!-- Generator: Sketch 48.2 (47327) - http://www.bohemiancoding.com/sketch -->
    <title>logo</title>
    <desc>Created with Sketch.</desc>
    <defs></defs>
    <g id="Desktop-Header" stroke="none" stroke-width="1" fill="none" fill-rule="evenodd">
        <g fill="#322B5E" id="logo">
            <path d="M19.2909378,1.35474702 L19.2909378,9.96491638 L19.2197793,9.96491638 L14.630061,2.63559866 C14.3454273,2.1730689 14.1675312,2.06633126 13.633843,2.06633126 L9.96918417,2.06633126 C9.47107519,2.06633126 9.36433756,2.13748969 9.36433756,2.7423363 L9.36433756,13.4872584 L11.783724,13.4872584 C12.2106745,13.4516792 12.3529914,13.4161 12.7087835,12.9891494 L15.9109126,9.28891135 L15.982071,9.28891135 L15.982071,18.3616105 L15.9109126,18.3616105 L12.7087835,14.6613724 C12.3529914,14.2700011 12.2106745,14.1988426 11.7481448,14.1988426 L9.36433756,14.1988426 L9.36433756,22.9869081 C9.36433756,23.4138586 9.39991677,23.5205962 9.75570889,23.8052299 L13.0289964,26.2957748 L13.0289964,26.3669332 L0.220480009,26.3669332 L0.220480009,26.2957748 L2.60428723,24.0542844 C2.88892093,23.7696507 2.92450014,23.6629131 2.92450014,23.2003833 L2.92450014,4.52129691 C2.92450014,4.05876715 2.88892093,3.95202951 2.60428723,3.66739581 L0.220480009,1.42590544 L0.220480009,1.35474702 L19.2909378,1.35474702 Z M27.9722656,0.4296875 L27.9722656,23.8052299 C27.9722656,24.2677597 28.0078448,24.3744973 28.3280577,24.659131 L30.0714391,26.2957748 L30.0714391,26.3669332 L20.1092596,26.3669332 L20.1092596,26.2957748 L21.852641,24.659131 C22.1372747,24.3744973 22.172854,24.2677597 22.172854,23.8052299 L22.172854,3.95202951 C22.172854,3.48949975 22.1372747,3.3471829 21.852641,3.06254921 L20.1092596,1.42590544 L20.1092596,1.35474702 L27.9722656,0.4296875 Z M35.6217962,6.79836649 C34.0918901,6.79836649 32.7754592,5.76656934 32.7754592,4.16550479 C32.7754592,2.4577026 34.0918901,1.39032623 35.6217962,1.39032623 C37.2228607,1.39032623 38.5037124,2.4577026 38.5037124,4.16550479 C38.5037124,5.76656934 37.2228607,6.79836649 35.6217962,6.79836649 Z M30.7474441,8.75522317 L38.6460292,8.75522317 L38.6460292,23.8052299 C38.6460292,24.2677597 38.6460292,24.3744973 38.9662421,24.659131 L40.7096235,26.2957748 L40.7096235,26.3669332 L30.7474441,26.3669332 L30.7474441,26.2957748 L32.4908255,24.659131 C32.8110384,24.3744973 32.8110384,24.2677597 32.8110384,23.8052299 L32.8110384,11.4948225 C32.8110384,11.0322927 32.7754592,10.9255551 32.4908255,10.6053422 L30.7474441,8.82638159 L30.7474441,8.75522317 Z M43.0578515,31.9172903 L43.0578515,11.4948225 C43.0578515,11.0322927 43.0222723,10.9255551 42.7376386,10.6053422 L40.9942572,8.82638159 L40.9942572,8.75522317 L48.8572631,8.75522317 L48.8572631,12.5266197 C50.0669564,9.7158619 51.9882338,8.47058947 54.372041,8.47058947 C58.3213336,8.47058947 61.0965121,11.8150354 61.0965121,17.1874965 C61.0965121,22.9157496 57.8588038,26.6515669 53.5537192,26.6515669 C50.9920159,26.6515669 49.497689,25.6197698 48.8572631,23.9475468 L48.8572631,31.7038151 C48.8572631,32.1663448 48.8928423,32.2730825 49.3909513,32.5932954 L52.023813,34.4078352 L52.023813,34.4789936 L40.9942572,34.4789936 L40.9942572,34.4078352 L42.7376386,32.7711914 C43.0222723,32.4865577 43.0578515,32.3798201 43.0578515,31.9172903 Z M51.5257041,11.3169264 C50.4227485,11.3169264 49.497689,12.0285107 48.8572631,12.9891494 L48.8572631,23.6984923 C49.3553721,24.2321805 50.2092732,24.5879726 51.1699119,24.5879726 C52.9844518,24.5879726 54.9413084,22.6666952 54.9413084,17.4721302 C54.9413084,13.1314663 53.5892984,11.3169264 51.5257041,11.3169264 Z M72.1616472,23.4138586 C72.1616472,21.9551109 71.0586916,21.3502643 68.7460428,20.2828879 L66.3266563,19.1443531 C64.3697997,18.2192936 62.8754728,16.6182291 62.8754728,14.092105 C62.8754728,10.7120798 65.6506513,8.47058947 70.1692113,8.47058947 C71.9125927,8.47058947 74.1185038,8.71964395 76.4311526,9.4312282 L74.4387167,14.590214 L74.3675583,14.590214 L71.5923798,9.64470347 C71.3789045,9.28891135 71.2721668,9.11101529 70.7740579,9.11101529 L70.2759489,9.11101529 C68.7104636,9.11101529 67.3940327,9.92933717 67.3940327,11.6015601 C67.3940327,13.1670455 68.5681467,13.9142089 70.6673202,14.8392685 L72.9443898,15.8354864 C75.150301,16.7961251 76.8936824,18.0058184 76.8936824,20.7454177 C76.8936824,24.5879726 73.6559741,26.6515669 68.9239388,26.6515669 C66.8959237,26.6515669 64.4053789,26.2601956 62.3773638,25.5486113 L64.3342205,20.0338334 L64.4053789,20.0338334 L67.2517159,25.5486113 C67.3940327,25.833245 67.607508,26.0111411 67.9988793,26.0111411 L68.8172012,26.0111411 C70.8807955,26.0111411 72.1616472,24.9437647 72.1616472,23.4138586 Z M82.7998316,6.79836649 C81.2699255,6.79836649 79.9534946,5.76656934 79.9534946,4.16550479 C79.9534946,2.4577026 81.2699255,1.39032623 82.7998316,1.39032623 C84.4008962,1.39032623 85.6817478,2.4577026 85.6817478,4.16550479 C85.6817478,5.76656934 84.4008962,6.79836649 82.7998316,6.79836649 Z M77.9254795,8.75522317 L85.8240646,8.75522317 L85.8240646,23.8052299 C85.8240646,24.2677597 85.8240646,24.3744973 86.1442776,24.659131 L87.887659,26.2957748 L87.887659,26.3669332 L77.9254795,26.3669332 L77.9254795,26.2957748 L79.6688609,24.659131 C79.9890738,24.3744973 79.9890738,24.2677597 79.9890738,23.8052299 L79.9890738,11.4948225 C79.9890738,11.0322927 79.9534946,10.9255551 79.6688609,10.6053422 L77.9254795,8.82638159 L77.9254795,8.75522317 Z M106.566745,0.4296875 L106.566745,23.6984923 C106.566745,24.1610221 106.566745,24.2677597 106.886958,24.5523934 L108.665919,26.2957748 L108.665919,26.3669332 L100.767334,26.3669332 L100.767334,23.0224873 C99.6999574,25.4774529 97.8142592,26.6515669 95.5371896,26.6515669 C91.4811594,26.6515669 88.5280848,23.4494378 88.5280848,17.614447 C88.5280848,12.1352483 91.7302139,8.47058947 96.1776154,8.47058947 C98.4902642,8.47058947 99.9845911,9.57354505 100.767334,11.3169264 L100.767334,3.95202951 C100.767334,3.48949975 100.731755,3.3471829 100.411542,3.06254921 L98.7037395,1.42590544 L98.7037395,1.35474702 L106.566745,0.4296875 Z M98.2767889,23.983126 C99.1662692,23.983126 100.05575,23.5561755 100.767334,22.6311159 L100.767334,11.6371394 C100.269225,10.9967135 99.4153237,10.5341838 98.454685,10.5341838 C96.5334075,10.5341838 94.6832885,12.2775652 94.6832885,17.436551 C94.6832885,22.2753238 96.284353,23.983126 98.2767889,23.983126 Z M125.743941,16.7605459 L115.070177,16.7605459 L115.070177,16.8317043 C115.070177,21.4570019 117.418405,23.3427002 120.158004,23.3427002 C122.292757,23.3427002 124.391931,22.4176407 125.566045,20.0694127 L125.637203,20.0694127 C124.712144,24.5523934 121.936965,26.6515669 117.774197,26.6515669 C113.291216,26.6515669 109.05729,23.9475468 109.05729,17.6856054 C109.05729,11.1034512 113.255637,8.47058947 117.987673,8.47058947 C121.759069,8.47058947 125.77952,10.2495501 125.77952,15.9778033 C125.77952,16.0845409 125.77952,16.3335954 125.743941,16.7605459 Z M117.916514,9.1465945 C116.137553,9.1465945 115.141336,10.9611343 115.070177,16.1201201 L120.300321,16.1201201 C120.335901,15.6575903 120.335901,15.1950606 120.335901,15.0527437 C120.335901,10.3918669 119.375262,9.1465945 117.916514,9.1465945 Z"></path>
        </g>
    </g>
</svg>