<?xml version="1.0" encoding="UTF-8"?>
<svg width="14px" height="17px" viewBox="0 0 14 17" version="1.1" xmlns="http://www.w3.org/2000/svg" xmlns:xlink="http://www.w3.org/1999/xlink">
    <!-- Generator: Sketch 48.2 (47327) - http://www.bohemiancoding.com/sketch -->
    <title>marker</title>
    <desc>Created with Sketch.</desc>
    <defs></defs>
    <g id="Home" stroke="none" stroke-width="1" fill="none" fill-rule="evenodd" transform="translate(-177.000000, -2394.000000)">
        <g id="Group-10" transform="translate(135.000000, 1898.000000)" fill="#E78181" fill-rule="nonzero">
            <g id="Group-5" transform="translate(0.000000, 0.535156)">
                <g id="marker" transform="translate(42.000000, 496.000000)">
                    <circle id="Oval" cx="7" cy="7" r="2"></circle>
                    <path d="M6.3,15.7 C6.2,15.6 2.1,12 2.1,11.9 C0.7,10.7 0,8.9 0,7 C0,3.1 3.1,0 7,0 C10.9,0 14,3.1 14,7 C14,8.9 13.3,10.7 11.9,12 C11.8,12.1 7.8,15.7 7.7,15.8 C7.3,16.1 6.7,16.1 6.3,15.7 Z M3.6,10.7 L7,13.7 L10.4,10.7 C10.4,10.7 10.4,10.7 10.4,10.7 C11.4,9.7 12,8.5 12,7.1 C12,4.3 9.8,2.1 7,2.1 C4.2,2.1 2,4.2 2,7 C2,8.4 2.6,9.7 3.6,10.7 C3.6,10.6 3.6,10.6 3.6,10.7 Z" id="Shape"></path>
                </g>
            </g>
        </g>
    </g>
</svg>