<?xml version="1.0" encoding="UTF-8"?>
<svg width="41px" height="26px" viewBox="0 0 41 26" version="1.1" xmlns="http://www.w3.org/2000/svg" xmlns:xlink="http://www.w3.org/1999/xlink">
    <!-- Generator: Sketch 48.2 (47327) - http://www.bohemiancoding.com/sketch -->
    <title>mc</title>
    <desc>Created with Sketch.</desc>
    <defs></defs>
    <g id="Checkout" stroke="none" stroke-width="1" fill="none" fill-rule="evenodd" transform="translate(-805.000000, -1330.000000)">
        <g id="Group-6-Copy-3" transform="translate(279.000000, 1296.000000)" fill-rule="nonzero">
            <g id="mc" transform="translate(526.293695, 34.191406)">
                <g id="_Group_" transform="translate(0.144144, 0.144144)">
                    <rect id="Rectangle-path" fill="#FF5F00" x="14.6265157" y="2.69210195" width="10.8027021" height="19.4139989"></rect>
                    <path d="M15.3124015,12.4008161 C15.3083626,8.61180857 17.0472962,5.03150228 20.0278667,2.69210195 C14.9659573,-1.28601821 7.6968523,-0.706570603 3.32908341,4.02322455 C-1.03868547,8.75301971 -1.03868547,16.0451831 3.32908341,20.7749782 C7.6968523,25.5047734 14.9659573,26.084221 20.0278667,22.1061009 C17.0482444,19.7674432 15.309417,16.1886202 15.3124015,12.4008161 Z" id="_Path_" fill="#EB001B"></path>
                    <path d="M40.004292,12.4008161 C40.0041818,17.1277289 37.3051326,21.4396428 33.0534409,23.5052716 C28.8017493,25.5709003 23.7438556,25.0275955 20.0278667,22.1061009 C23.0061889,19.7654577 24.7451472,16.1871106 24.7451472,12.3991014 C24.7451472,8.61109224 23.0061889,5.03274508 20.0278667,2.69210195 C23.7438556,-0.229392747 28.8017493,-0.772697535 33.0534409,1.29293121 C37.3051326,3.35855996 40.0041818,7.67047392 40.004292,12.3973867 L40.004292,12.4008161 Z" id="Shape" fill="#F79E1B"></path>
                    <path d="M38.8245684,20.0647771 L38.8245684,19.6534296 L38.9857515,19.6534296 L38.9857515,19.5683232 L38.5776495,19.5683232 L38.5776495,19.6534296 L38.7525504,19.6534296 L38.7525504,20.0647771 L38.8245684,20.0647771 Z M39.6167665,20.0647771 L39.6167665,19.5683232 L39.4933071,19.5683232 L39.349271,19.9229331 L39.205235,19.5683232 L39.0954933,19.5683232 L39.0954933,20.0647771 L39.1846584,20.0647771 L39.1846584,19.6924367 L39.3184062,20.0151317 L39.4110008,20.0151317 L39.5447485,19.6924367 L39.5447485,20.0683232 L39.6167665,20.0647771 Z" id="Shape" fill="#F79E1B"></path>
                </g>
            </g>
        </g>
    </g>
</svg>