<?xml version="1.0" encoding="UTF-8"?>
<svg width="73px" height="68px" viewBox="0 0 73 68" version="1.1" xmlns="http://www.w3.org/2000/svg" xmlns:xlink="http://www.w3.org/1999/xlink">
    <!-- Generator: Sketch 48.2 (47327) - http://www.bohemiancoding.com/sketch -->
    <title>peoplefirst</title>
    <desc>Created with Sketch.</desc>
    <defs></defs>
    <g id="Careers" stroke="none" stroke-width="1" fill="none" fill-rule="evenodd" transform="translate(-683.000000, -1515.000000)" stroke-linecap="square">
        <g id="peoplefirst" transform="translate(684.500000, 1516.339844)" stroke="#322B5E" stroke-width="2">
            <path d="M46.8660188,2.31974107 C43.453053,-1.21365485 37.7565921,-0.636058036 35.0767299,3.54274972 C32.3945293,-0.640734933 26.6968991,-1.21014718 23.287441,2.31857185 C20.2989036,5.4111702 20.2989036,10.4271426 23.287441,13.5197409 L35.0755607,25.7229353 L46.8660188,13.5209102 C49.8545562,10.4271426 49.8545562,5.41233943 46.8660188,2.31974107 Z" id="Shape"></path>
            <circle id="Oval" cx="56.1227679" cy="37.4151786" r="7.01534598"></circle>
            <circle id="Oval" cx="14.030692" cy="37.4151786" r="7.01534598"></circle>
            <path d="M28.0613839,65.4765625 L28.0613839,58.5021394 C28.0613839,56.8418408 27.1903118,55.3148338 25.7615197,54.4694847 C23.4873783,53.1237074 19.5447539,51.4458705 14.030692,51.4458705 C8.44530734,51.4458705 4.52840583,53.1131844 2.277649,54.4566232 C0.860549107,55.3031416 0,56.8254717 0,58.4764164 L0,65.4765625 L28.0613839,65.4765625 Z" id="Shape"></path>
            <path d="M70.1534598,65.4765625 L70.1534598,58.5021394 C70.1534598,56.8418408 69.2823877,55.3148338 67.8535956,54.4694847 C65.5794542,53.1237074 61.6368298,51.4458705 56.1227679,51.4458705 C50.5373832,51.4458705 46.6204817,53.1131844 44.3697249,54.4566232 C42.952625,55.3031416 42.0920759,56.8254717 42.0920759,58.4764164 L42.0920759,65.4765625 L70.1534598,65.4765625 Z" id="Shape"></path>
        </g>
    </g>
</svg>