<?xml version="1.0" encoding="UTF-8"?>
<svg width="92px" height="92px" viewBox="0 0 92 92" version="1.1" xmlns="http://www.w3.org/2000/svg" xmlns:xlink="http://www.w3.org/1999/xlink">
    <!-- Generator: Sketch 48.2 (47327) - http://www.bohemiancoding.com/sketch -->
    <title>price</title>
    <desc>Created with Sketch.</desc>
    <defs></defs>
    <g id="Become-a-Venue" stroke="none" stroke-width="1" fill="none" fill-rule="evenodd" transform="translate(-1140.000000, -758.000000)">
        <g id="price" transform="translate(1141.000000, 759.000000)">
            <circle id="Oval-5" stroke="#322B5E" stroke-width="2" cx="45" cy="45" r="45"></circle>
            <path d="M42.52,46.9 C42.52,54.858 44.59,60.838 50.57,60.838 C56.55,60.838 58.62,54.858 58.62,46.9 C58.62,38.942 56.55,32.962 50.57,32.962 C44.59,32.962 42.52,38.942 42.52,46.9 Z M39.76,46.9 C39.76,37.378 42.658,30.34 50.57,30.34 C58.482,30.34 61.38,37.378 61.38,46.9 C61.38,56.422 58.482,63.46 50.57,63.46 C42.658,63.46 39.76,56.422 39.76,46.9 Z" id="0" fill="#322B5E"></path>
            <path d="M30.48,44.96 C32.04,44.96 33.408,43.952 33.408,42.44 C33.408,39.872 29.856,39.584 27.624,38.12 C26.424,37.328 25.488,36.176 25.488,34.424 C25.488,32.312 27.096,30.512 29.448,30.08 L29.448,27.44 L31.728,27.44 L31.728,30.056 C33.264,30.32 34.368,31.04 35.088,31.64 L33.672,33.392 C32.76,32.624 31.728,32.24 30.672,32.24 C29.28,32.24 27.888,33.032 27.888,34.496 C27.888,36.632 31.464,37.088 33.624,38.528 C34.752,39.272 35.808,40.448 35.808,42.368 C35.808,44.936 34.08,46.712 31.728,47.144 L31.728,49.76 L29.448,49.76 L29.448,47.144 C27.6,46.88 25.944,45.944 24.72,44.432 L26.376,42.8 C27.36,44 28.752,44.96 30.48,44.96 Z" id="$" fill="#322B5E"></path>
        </g>
    </g>
</svg>