<?xml version="1.0" encoding="UTF-8"?>
<svg width="10px" height="10px" viewBox="0 0 10 10" version="1.1" xmlns="http://www.w3.org/2000/svg" xmlns:xlink="http://www.w3.org/1999/xlink">
    <!-- Generator: Sketch 48.2 (47327) - http://www.bohemiancoding.com/sketch -->
    <title>remove</title>
    <desc>Created with Sketch.</desc>
    <defs></defs>
    <g id="Checkout" stroke="none" stroke-width="1" fill="none" fill-rule="evenodd" transform="translate(-1050.000000, -417.000000)">
        <g id="Group-5" transform="translate(279.000000, 152.000000)" fill="#181C52" fill-rule="nonzero">
            <g id="Group-13-Copy" transform="translate(760.000000, 256.103516)">
                <path d="M20.1921735,9.80782645 C19.9418945,9.55754743 19.566476,9.55754743 19.316197,9.80782645 L16,13.1240234 L12.683803,9.80782645 C12.433524,9.55754743 12.0581055,9.55754743 11.8078265,9.80782645 C11.5575474,10.0581055 11.5575474,10.433524 11.8078265,10.683803 L15.1240234,14 L11.8078265,17.316197 C11.5575474,17.566476 11.5575474,17.9418945 11.8078265,18.1921735 C11.932966,18.3173131 12.0581055,18.3798828 12.2458147,18.3798828 C12.433524,18.3798828 12.5586635,18.3173131 12.683803,18.1921735 L16,14.8759766 L19.316197,18.1921735 C19.4413365,18.3173131 19.6290458,18.3798828 19.7541853,18.3798828 C19.8793248,18.3798828 20.067034,18.3173131 20.1921735,18.1921735 C20.4424526,17.9418945 20.4424526,17.566476 20.1921735,17.316197 L16.8759766,14 L20.1921735,10.683803 C20.4424526,10.433524 20.4424526,10.0581055 20.1921735,9.80782645 Z" id="remove"></path>
            </g>
        </g>
    </g>
</svg>