<?xml version="1.0" encoding="UTF-8"?>
<svg width="59px" height="20px" viewBox="0 0 59 20" version="1.1" xmlns="http://www.w3.org/2000/svg" xmlns:xlink="http://www.w3.org/1999/xlink">
    <!-- Generator: Sketch 48.2 (47327) - http://www.bohemiancoding.com/sketch -->
    <title>visa</title>
    <desc>Created with Sketch.</desc>
    <defs></defs>
    <g id="Checkout" stroke="none" stroke-width="1" fill="none" fill-rule="evenodd" transform="translate(-864.000000, -1333.000000)">
        <g id="Group-6-Copy-3" transform="translate(279.000000, 1296.000000)" fill-rule="nonzero">
            <g id="visa" transform="translate(585.488252, 37.691406)">
                <polygon id="polygon9" fill="#00579F" points="25.0850663 18.6103773 20.4172151 18.6103773 23.3368236 0.557711116 28.0044196 0.557711116"></polygon>
                <path d="M42.0064416,0.999047295 C41.0857362,0.633777155 39.6254214,0.230473996 37.8197464,0.230473996 C33.2100934,0.230473996 29.9640135,2.68858122 29.9441036,6.20293432 C29.9058153,8.79581628 32.2682018,10.2359659 34.0350781,11.1005152 C35.8410084,11.9839533 36.454897,12.5605747 36.454897,13.3480369 C36.4365187,14.5574358 34.9956033,15.1149131 33.6516848,15.1149131 C31.7880669,15.1149131 30.7895087,14.8274958 29.2720167,14.1546432 L28.6573623,13.8662049 L28.0041643,17.9186358 C29.0989537,18.4174044 31.11598,18.8600169 33.2100934,18.8794163 C38.1079295,18.8794163 41.296577,16.4593421 41.3343547,12.7142383 C41.3529884,10.659179 40.1055564,9.08450987 37.416188,7.79776859 C35.7835759,6.97176287 34.7837415,6.41479611 34.7837415,5.56964626 C34.8028856,4.80132822 35.6294018,4.01437655 37.4723441,4.01437655 C38.9898361,3.97583302 40.1047906,4.34059265 40.94943,4.70560753 L41.371622,4.89730416 L42.0064416,0.999047295 Z" id="path11" fill="#00579F"></path>
                <path d="M48.2104183,12.2149592 C48.5948326,11.1778575 50.0740363,7.16397001 50.0740363,7.16397001 C50.0546369,7.20251354 50.4576848,6.10772415 50.6881802,5.4356373 L51.0143963,6.99116227 C51.0143963,6.99116227 51.898345,11.3123769 52.0902968,12.2149592 C51.3607776,12.2149592 49.1324,12.2149592 48.2104183,12.2149592 Z M53.9722932,0.557711116 L50.3617089,0.557711116 C49.2482858,0.557711116 48.4023702,0.883927216 47.92198,2.05554842 L40.988484,18.6101221 L45.8863201,18.6101221 C45.8863201,18.6101221 46.6926711,16.3819997 46.8659894,15.90212 C47.4033015,15.90212 52.1678944,15.90212 52.8591254,15.90212 C52.9931344,16.5359186 53.4160922,18.6101221 53.4160922,18.6101221 L57.7380726,18.6101221 L53.9722932,0.557711116 Z" id="path13" fill="#00579F"></path>
                <path d="M16.5184477,0.557711116 L11.947083,12.8679019 L11.4475486,10.3712511 C10.6023988,7.49044137 7.95182915,4.36050255 4.99393231,2.80421181 L9.18113802,18.5912332 L14.1172624,18.5912332 L21.4543168,0.557711116 L16.5184477,0.557711116 Z" id="path15" fill="#00579F"></path>
                <path d="M7.7021896,0.557711116 L0.192072169,0.557711116 L0.115240364,0.922470746 C5.97360163,2.4205633 9.85348012,6.03165811 11.4475486,10.3720169 L9.81493659,2.07520307 C9.54615291,0.92221549 8.72014719,0.595744136 7.7021896,0.557711116 Z" id="path17" fill="#FAA61A"></path>
            </g>
        </g>
    </g>
</svg>