<?xml version="1.0" encoding="UTF-8"?>
<svg width="93px" height="107px" viewBox="0 0 93 107" version="1.1" xmlns="http://www.w3.org/2000/svg" xmlns:xlink="http://www.w3.org/1999/xlink">
    <!-- Generator: Sketch 48.2 (47327) - http://www.bohemiancoding.com/sketch -->
    <title>wine</title>
    <desc>Created with Sketch.</desc>
    <defs></defs>
    <g id="Home" stroke="none" stroke-width="1" fill="none" fill-rule="evenodd" transform="translate(-667.000000, -1424.000000)" stroke-linecap="square">
        <g id="Group-13" transform="translate(583.000000, 1425.500000)" stroke="#322B5E" stroke-width="2">
            <g id="wine" transform="translate(82.000000, 0.000000)">
                <g id="champagne" transform="translate(24.264606, 59.372725) rotate(11.000000) translate(-24.264606, -59.372725) translate(9.264606, 14.372725)">
                    <path d="M0,40.8974365 L29.7402943,40.8974365" id="Shape"></path>
                    <path d="M14.8701472,64.2674002 C6.69156622,64.2674002 0,56.3800374 0,46.7399274 L0,0 L29.7402943,0 L29.7402943,46.7399274 C29.7402943,56.3800374 23.0487281,64.2674002 14.8701472,64.2674002 Z" id="Shape"></path>
                    <path d="M14.8701472,64.2674002 L14.8701472,87.6373639" id="Shape"></path>
                    <path d="M2.47835786,87.6373639 L27.2619365,87.6373639" id="Shape"></path>
                </g>
                <g id="champagne-copy" transform="translate(71.938794, 46.762993) rotate(-13.000000) translate(-71.938794, -46.762993) translate(56.938794, 2.262993)">
                    <path d="M0,40.7801842 L29.7402943,40.7801842" id="Shape"></path>
                    <path d="M14.8701472,64.0831467 C6.69156622,64.0831467 0,56.2183968 0,46.6059248 L0,0 L29.7402943,0 L29.7402943,46.6059248 C29.7402943,56.2183968 23.0487281,64.0831467 14.8701472,64.0831467 Z" id="Shape"></path>
                    <path d="M14.8701472,64.0831467 L14.8701472,87.3861091" id="Shape"></path>
                    <path d="M2.47835786,87.3861091 L27.2619365,87.3861091" id="Shape"></path>
                </g>
            </g>
        </g>
    </g>
</svg>